<mxfile host="app.diagrams.net" agent="Mozilla/5.0 (Windows NT 10.0; Win64; x64) AppleWebKit/537.36 (KHTML, like Gecko) Chrome/135.0.0.0 Safari/537.36" version="27.0.9">
  <diagram name="Page-1" id="sZlI9gZmGEIKoVF1-aLm">
    <mxGraphModel dx="524" dy="278" grid="1" gridSize="10" guides="1" tooltips="1" connect="1" arrows="1" fold="1" page="1" pageScale="1" pageWidth="480" pageHeight="270" math="0" shadow="0">
      <root>
        <mxCell id="0" />
        <mxCell id="1" parent="0" />
        <mxCell id="dvbm3xLmsTJXCYL_BL6S-2" value="" style="rounded=0;whiteSpace=wrap;html=1;movable=0;resizable=0;rotatable=0;deletable=0;editable=0;locked=1;connectable=0;fillColor=#333333;strokeColor=#333333;" vertex="1" parent="1">
          <mxGeometry width="480" height="270" as="geometry" />
        </mxCell>
        <mxCell id="dvbm3xLmsTJXCYL_BL6S-6" value="" style="rounded=0;whiteSpace=wrap;html=1;fillColor=#FFFF66;strokeColor=#FFFF66;fontColor=#ffffff;" vertex="1" parent="1">
          <mxGeometry x="20" y="40" width="150" height="210" as="geometry" />
        </mxCell>
        <mxCell id="dvbm3xLmsTJXCYL_BL6S-7" value="" style="rounded=1;whiteSpace=wrap;html=1;fillColor=#dae8fc;gradientColor=#7ea6e0;strokeColor=#6c8ebf;" vertex="1" parent="1">
          <mxGeometry x="30" y="60" width="125" height="180" as="geometry" />
        </mxCell>
        <mxCell id="dvbm3xLmsTJXCYL_BL6S-9" value="" style="ellipse;whiteSpace=wrap;html=1;fillColor=#e6d0de;gradientColor=#d5739d;strokeColor=#996185;" vertex="1" parent="1">
          <mxGeometry x="40" y="100" width="50" height="35" as="geometry" />
        </mxCell>
        <mxCell id="dvbm3xLmsTJXCYL_BL6S-10" value="" style="shape=cylinder3;whiteSpace=wrap;html=1;boundedLbl=1;backgroundOutline=1;size=15;fillColor=#fff2cc;gradientColor=#ffd966;strokeColor=#d6b656;" vertex="1" parent="1">
          <mxGeometry x="100" y="80" width="45" height="60" as="geometry" />
        </mxCell>
        <mxCell id="dvbm3xLmsTJXCYL_BL6S-11" value="" style="rounded=1;whiteSpace=wrap;html=1;fillColor=#e1d5e7;strokeColor=#9673a6;" vertex="1" parent="1">
          <mxGeometry x="40" y="148.75" width="110" height="20" as="geometry" />
        </mxCell>
        <mxCell id="dvbm3xLmsTJXCYL_BL6S-12" value="" style="rhombus;whiteSpace=wrap;html=1;fillColor=#ffcd28;gradientColor=#ffa500;strokeColor=#d79b00;" vertex="1" parent="1">
          <mxGeometry x="40" y="173.75" width="60" height="60" as="geometry" />
        </mxCell>
        <mxCell id="dvbm3xLmsTJXCYL_BL6S-13" value="" style="ellipse;shape=cloud;whiteSpace=wrap;html=1;fillColor=#d5e8d4;gradientColor=#97d077;strokeColor=#82b366;" vertex="1" parent="1">
          <mxGeometry x="100" y="170" width="55" height="50" as="geometry" />
        </mxCell>
        <mxCell id="dvbm3xLmsTJXCYL_BL6S-14" value="Heap&lt;br&gt;Memory" style="text;html=1;align=center;verticalAlign=middle;whiteSpace=wrap;rounded=0;strokeWidth=1;fontSize=9;" vertex="1" parent="1">
          <mxGeometry x="35" y="102.5" width="60" height="30" as="geometry" />
        </mxCell>
        <mxCell id="dvbm3xLmsTJXCYL_BL6S-17" value="Stack&lt;br&gt;&amp;nbsp;Memory" style="text;html=1;align=center;verticalAlign=middle;whiteSpace=wrap;rounded=0;fontSize=9;" vertex="1" parent="1">
          <mxGeometry x="96.25" y="112.5" width="52.5" height="20" as="geometry" />
        </mxCell>
        <mxCell id="dvbm3xLmsTJXCYL_BL6S-19" value="Method Area/Metaspace" style="text;html=1;align=center;verticalAlign=middle;whiteSpace=wrap;rounded=0;fontSize=9;" vertex="1" parent="1">
          <mxGeometry x="20" y="143.75" width="150" height="30" as="geometry" />
        </mxCell>
        <mxCell id="dvbm3xLmsTJXCYL_BL6S-21" value="PC&lt;br&gt;&lt;font style=&quot;font-size: 6px;&quot;&gt;(Program Counter)&lt;br&gt;&lt;/font&gt;Register" style="text;html=1;align=center;verticalAlign=middle;whiteSpace=wrap;rounded=0;fontSize=9;" vertex="1" parent="1">
          <mxGeometry x="10" y="185" width="120" height="30" as="geometry" />
        </mxCell>
        <mxCell id="dvbm3xLmsTJXCYL_BL6S-22" value="&lt;font&gt;Native&lt;br&gt;Method&lt;br&gt;Stack&lt;/font&gt;" style="text;html=1;align=center;verticalAlign=middle;whiteSpace=wrap;rounded=0;fontSize=9;" vertex="1" parent="1">
          <mxGeometry x="102.5" y="182.5" width="52.5" height="25" as="geometry" />
        </mxCell>
        <mxCell id="dvbm3xLmsTJXCYL_BL6S-23" value="&lt;b&gt;JVM Memory&lt;/b&gt;" style="text;html=1;align=center;verticalAlign=middle;whiteSpace=wrap;rounded=0;fontSize=11;" vertex="1" parent="1">
          <mxGeometry x="25" y="60" width="90" height="30" as="geometry" />
        </mxCell>
        <mxCell id="dvbm3xLmsTJXCYL_BL6S-24" value="&lt;b&gt;RAM&lt;/b&gt;" style="text;html=1;align=center;verticalAlign=middle;whiteSpace=wrap;rounded=0;fontColor=#000000;fillColor=none;" vertex="1" parent="1">
          <mxGeometry x="25" y="40" width="55" height="20" as="geometry" />
        </mxCell>
      </root>
    </mxGraphModel>
  </diagram>
</mxfile>
